<svg xmlns="http://www.w3.org/2000/svg" xmlns:xlink="http://www.w3.org/1999/xlink" version="1.1" x="0px" y="0px" width="100px" height="100px" viewBox="0 0 100 100" enable-background="new 0 0 100 100" xml:space="preserve">
<g id="Captions">
</g>
<g id="Your_Icon">
	<path d="M91.946,20.054C90.691,18.794,88.927,17.999,87,18H13c-1.927-0.001-3.691,0.794-4.946,2.054   C6.794,21.309,5.999,23.073,6,25v52c-0.001,1.927,0.794,3.691,2.054,4.946C9.309,83.206,11.073,84.001,13,84h74   c1.927,0.001,3.691-0.794,4.946-2.054c1.26-1.255,2.055-3.02,2.054-4.946V25C94.001,23.073,93.206,21.309,91.946,20.054z    M88,73.432L64.24,51.5L88,29.568V73.432z M13,24h74c0.273,0.001,0.509,0.105,0.704,0.296c0.019,0.019,0.025,0.042,0.042,0.062   L54.787,54.782c-1.027,0.953-2.463,1.468-3.925,1.467c-1.409,0.001-2.789-0.477-3.803-1.37L12.271,24.333   c0.01-0.012,0.014-0.025,0.024-0.037C12.491,24.105,12.727,24.001,13,24z M12,73.582V29.417L37.149,51.5L12,73.582z M13.031,78   l27.149-23.838l4.24,3.723c1.826,1.601,4.148,2.363,6.441,2.364c2.378-0.001,4.784-0.821,6.638-2.527l3.792-3.5l25.75,23.77   C87.027,77.992,87.016,78,87,78H13.031z"/>
</g>
</svg>